<svg xmlns="http://www.w3.org/2000/svg" width="229.731" height="229.731"><path d="M43.582 32.332c-5.138 4.203-16.345-3.48-23.813-7.105-7.471-3.631-16.345 1.973-7.94 16.911 8.404 14.938 17.745 20.547 9.341 20.547-8.406 0-5.139 15.875 15.873 13.072 4.834-.643 8.689-.755 11.822-.561-.118-2.667-.374-4.566-.509-5.354-2.237-6.126-3.367-12.457-3.367-18.834a54.767 54.767 0 014.672-22.129c-2.398 1.073-4.611 2.249-6.079 3.453z"/><path d="M116.414 229.731c54.923 0 93.008-26.584 99.461-57.899 13.065-63.502 0-86.852-12.139-85.894-12.137.96-25.215 26.124-39.222 27.059-14.008.936-10.277-14.009-30.82-14.009-5.285 0-8.979-1.931-11.571-4.774 16.759-7.929 28.384-24.946 28.384-44.72C150.507 22.162 128.343 0 101.012 0 73.679 0 51.517 22.162 51.517 49.495c0 6.115 1.161 11.942 3.187 17.349 0 0 6.961 34.14-22.804 62.028-16.872 15.809-14.938 42.961-14.938 42.961-.006 31.967 44.528 57.898 99.452 57.898zM78.288 24.157c4.383 0 7.93 3.551 7.93 7.929s-3.551 7.929-7.93 7.929c-4.383 0-7.934-3.551-7.934-7.929s3.551-7.929 7.934-7.929z"/></svg>